<?xml version="1.0" encoding="UTF-8" standalone="no"?>
<!-- Created with Inkscape (http://www.inkscape.org/) -->

<svg
   xmlns:dc="http://purl.org/dc/elements/1.1/"
   xmlns:cc="http://creativecommons.org/ns#"
   xmlns:rdf="http://www.w3.org/1999/02/22-rdf-syntax-ns#"
   xmlns:svg="http://www.w3.org/2000/svg"
   xmlns="http://www.w3.org/2000/svg"
   xmlns:sodipodi="http://sodipodi.sourceforge.net/DTD/sodipodi-0.dtd"
   xmlns:inkscape="http://www.inkscape.org/namespaces/inkscape"
   version="1.1"
   id="svg2"
   xml:space="preserve"
   width="550.66669"
   height="180"
   viewBox="0 0 550.66669 180"
   sodipodi:docname="Logo_vit_text.svg"
   inkscape:version="0.92.2 (5c3e80d, 2017-08-06)"><metadata
     id="metadata8"><rdf:RDF><cc:Work
         rdf:about=""><dc:format>image/svg+xml</dc:format><dc:type
           rdf:resource="http://purl.org/dc/dcmitype/StillImage" /><dc:title></dc:title></cc:Work></rdf:RDF></metadata><defs
     id="defs6"><clipPath
       clipPathUnits="userSpaceOnUse"
       id="clipPath20"><path
         d="m 38.34502,64.96913 -0.728,-1.97446 c -0.52268,-1.3949 -0.78401,-2.3772 -0.78401,-2.94695 0,-0.96268 0.308,-1.63556 0.92401,-2.01867 0.61601,-0.3831 1.62401,-0.57465 3.02402,-0.57465 v -3.27112 h -12.5441 v 3.27112 c 2.38936,0 4.39603,2.14143 6.02005,6.42436 l 11.6761,30.97251 h 3.27603 c 2.82761,-7.35245 4.94831,-12.86678 6.36212,-16.543 1.23066,-3.20001 3.07666,-8.00002 5.53798,-14.40004 1.17602,-3.06485 2.24002,-4.90668 3.19203,-5.52554 0.95201,-0.61887 1.86668,-0.92829 2.74402,-0.92829 V 54.18328 H 48.20111 v 3.27112 c 1.69869,0 2.75335,0.1719 3.16403,0.51571 0.41067,0.34382 0.616,0.78095 0.616,1.3114 0,0.47151 -0.168,1.09037 -0.504,1.85658 l -0.36401,0.91356 -1.09201,2.91748 z m 0.98001,4.00251 h 9.24008 L 43.81869,80.06291 Z M 67.04527,54.18328 v 3.29019 c 1.96223,0 3.26424,0.33099 3.90609,0.99299 0.64185,0.66199 0.96277,1.97114 0.96277,3.92748 v 23.80204 c 0,1.89706 -0.30258,3.19139 -0.90775,3.88302 -0.60517,0.69164 -1.92553,1.03745 -3.96111,1.03745 V 94.377 l 4.48375,0.17785 c 4.51129,0.19761 8.05057,0.29642 10.61797,0.29642 4.29122,0 7.78008,-0.26677 10.46667,-0.80032 2.6866,-0.53355 5.22645,-1.70437 7.61964,-3.51251 2.3932,-1.80813 4.2362,-4.14978 5.529,-7.02501 1.2929,-2.87523 1.9393,-6.04188 1.9393,-9.50006 0,-3.53723 -0.6831,-6.69894 -2.0493,-9.48525 -1.3662,-2.7863 -3.2046,-5.00938 -5.5153,-6.66931 C 97.82636,56.19888 95.43321,55.17132 92.95751,54.7761 90.4818,54.38088 86.31902,54.18328 80.46902,54.18328 Z M 83.67742,89.30563 V 63.33112 c 0,-1.66861 0.06775,-2.79026 0.20324,-3.36501 0.1355,-0.57474 0.49417,-1.06604 1.07602,-1.47392 0.58185,-0.40789 1.47852,-0.61182 2.69004,-0.61182 2.99692,0 5.2406,1.27924 6.73109,3.83777 1.49049,2.55853 2.23572,6.387 2.23572,11.48552 0,4.11589 -0.54996,7.3928 -1.64989,9.83082 -1.09994,2.43802 -2.52664,4.0927 -4.28016,4.96408 -1.75352,0.87139 -4.08885,1.30707 -7.00606,1.30707 z"
         id="path18"
         inkscape:connector-curvature="0" /></clipPath><clipPath
       clipPathUnits="userSpaceOnUse"
       id="clipPath26"><path
         d="M 0,0 H 413 V 135 H 0 Z"
         id="path24"
         inkscape:connector-curvature="0" /></clipPath><clipPath
       clipPathUnits="userSpaceOnUse"
       id="clipPath36"><path
         d="m 218.5826,73.77418 c 0,3.68398 0.994,7.27731 2.9822,10.78011 1.9881,3.5028 4.6827,6.09463 8.084,7.77558 3.4012,1.68094 7.0412,2.5214 10.9199,2.5214 6.9779,0 12.4501,-2.0785 16.4166,-6.23556 3.9665,-4.15706 5.9497,-9.25517 5.9497,-15.29448 0,-5.73734 -1.9784,-10.66937 -5.9351,-14.79624 -3.9568,-4.12686 -9.3363,-6.19026 -16.1388,-6.19026 -4.6584,0 -8.7759,1.0166 -12.3526,3.04984 -3.5766,2.03323 -6.1251,4.76598 -7.6454,8.19832 -1.5204,3.43234 -2.2805,6.8294 -2.2805,10.19129 z m 12.9361,0.29815 c 0,-5.88359 0.7693,-10.12703 2.3078,-12.73047 1.5385,-2.60344 3.828,-3.90514 6.8684,-3.90514 3.1686,0 5.5588,1.18891 7.1706,3.56678 1.6118,2.37787 2.4177,6.54614 2.4177,12.50491 0,5.45125 -0.7555,9.52082 -2.2666,12.20885 -1.5111,2.68803 -3.915,4.03202 -7.2118,4.03202 -3.1137,0 -5.4398,-1.25001 -6.9783,-3.75006 -1.5385,-2.50005 -2.3078,-6.47564 -2.3078,-11.92689 z"
         id="path34"
         inkscape:connector-curvature="0" /></clipPath><clipPath
       clipPathUnits="userSpaceOnUse"
       id="clipPath42"><path
         d="M 0,0 H 413 V 135 H 0 Z"
         id="path40"
         inkscape:connector-curvature="0" /></clipPath><clipPath
       clipPathUnits="userSpaceOnUse"
       id="clipPath52"><path
         d="m 111.3977,73.77418 c 0,3.68398 0.994,7.27731 2.9821,10.78011 1.9881,3.5028 4.6828,6.09463 8.084,7.77558 3.4013,1.68094 7.0412,2.5214 10.92,2.5214 6.9779,0 12.45,-2.0785 16.4165,-6.23556 3.9665,-4.15706 5.9497,-9.25517 5.9497,-15.29448 0,-5.73734 -1.9783,-10.66937 -5.935,-14.79624 -3.9568,-4.12686 -9.3363,-6.19026 -16.1388,-6.19026 -4.6585,0 -8.7759,1.0166 -12.3526,3.04984 -3.5767,2.03323 -6.1251,4.76598 -7.6455,8.19832 -1.5203,3.43234 -2.2804,6.8294 -2.2804,10.19129 z m 12.9361,0.29815 c 0,-5.88359 0.7692,-10.12703 2.3078,-12.73047 1.5385,-2.60344 3.8279,-3.90514 6.8684,-3.90514 3.1686,0 5.5588,1.18891 7.1706,3.56678 1.6118,2.37787 2.4176,6.54614 2.4176,12.50491 0,5.45125 -0.7555,9.52082 -2.2665,12.20885 -1.5111,2.68803 -3.915,4.03202 -7.2119,4.03202 -3.1136,0 -5.4397,-1.25001 -6.9782,-3.75006 -1.5386,-2.50005 -2.3078,-6.47564 -2.3078,-11.92689 z"
         id="path50"
         inkscape:connector-curvature="0" /></clipPath><clipPath
       clipPathUnits="userSpaceOnUse"
       id="clipPath58"><path
         d="M 0,0 H 413 V 135 H 0 Z"
         id="path56"
         inkscape:connector-curvature="0" /></clipPath><clipPath
       clipPathUnits="userSpaceOnUse"
       id="clipPath68"><path
         d="m 168.3283,72.25732 c -3.0577,0.81094 -5.4352,2.33143 -7.1324,4.56151 -1.6973,2.23009 -2.5459,4.61943 -2.5459,7.16809 0,4.08367 1.7113,7.18981 5.1338,9.31853 3.4224,2.12871 7.8267,3.19305 13.2129,3.19305 2.9737,0 5.5756,-0.31133 7.8058,-0.93402 2.2302,-0.62269 4.0887,-1.5567 5.5755,-2.80207 1.1469,0.99233 2.5423,3.27243 5.1939,5.00763 4.1587,2.72146 6.6919,4.00386 9.0394,4.34516 2.7885,0.4053 8.8401,0.1701 9.0217,-5.28511 0.1815,-5.45523 -4.6921,-6.78441 -6.6115,-6.48536 -4.7066,0.7333 -3.8546,4.52951 -4.8937,5.55244 -0.0371,0.03653 -1.2282,1.32842 -3.3211,0.93292 -1.7547,-0.33159 -3.7128,-1.96242 -3.8759,-2.23041 -1.7579,-2.88866 -1.7698,-4.32893 -2.028,-4.57418 1.066,-1.79565 1.599,-3.80849 1.599,-6.03858 0,-3.50441 -1.3465,-6.48747 -4.0396,-8.94925 -2.7212,-2.49074 -7.5603,-3.88091 -14.5175,-4.17053 -2.9175,-0.11585 -4.9373,-0.43442 -6.0594,-0.95574 -1.1221,-0.52132 -1.6832,-1.33225 -1.6832,-2.43281 0,-1.53499 1.8234,-2.30248 5.4704,-2.30248 0.7854,0 2.5948,0.05792 5.4282,0.17377 0.9819,0.02897 1.9777,0.04345 2.9877,0.04345 6.1156,0 10.5339,-0.9847 13.255,-2.95413 2.7212,-1.96942 4.0817,-5.14073 4.0817,-9.51401 0,-4.54706 -1.8935,-8.24691 -5.6807,-11.09968 -3.7872,-2.85277 -9.524,-4.27914 -17.2105,-4.27914 -7.2939,0 -12.2732,0.95574 -14.9383,2.86724 -2.665,1.9115 -3.9975,4.06915 -3.9975,6.473 0,1.50603 0.4839,2.73691 1.4517,3.69266 0.9678,0.95575 2.0829,1.43362 3.3453,1.43362 1.0099,0 2.2022,-0.33306 3.5768,-0.99919 -0.1964,-0.52132 -0.3507,-1.02091 -0.4629,-1.49879 -0.1122,-0.47787 -0.1683,-0.91954 -0.1683,-1.32501 0,-2.02735 0.9818,-3.54784 2.9456,-4.56151 1.9637,-1.01368 4.9092,-1.5205 8.8367,-1.5205 4.8812,0 8.5351,0.70956 10.9617,2.1287 2.4266,1.41915 3.6399,3.15685 3.6399,5.21316 0,1.94046 -0.8276,3.17134 -2.4827,3.69265 -1.6551,0.52132 -5.4563,0.78198 -11.4036,0.78198 -6.5083,0 -11.1721,0.70232 -13.9914,2.10698 -2.8194,1.40467 -4.229,3.78677 -4.229,7.14637 0,2.34594 0.7293,4.27913 2.1881,5.79964 1.4588,1.52051 3.6329,2.61382 6.5223,3.27995 z m 2.8552,11.74924 c 0,-2.98541 0.5099,-5.23221 1.5298,-6.74046 1.0198,-1.50825 2.5329,-2.26237 4.5392,-2.26237 1.9394,0 3.3939,0.77744 4.3637,2.33234 0.9697,1.5549 1.4545,3.88721 1.4545,6.99701 0,2.70553 -0.5851,4.66468 -1.7555,5.8775 -1.1703,1.21282 -2.5747,1.81922 -4.2132,1.81922 -1.9728,0 -3.4525,-0.66859 -4.4389,-2.00581 -0.9864,-1.33721 -1.4796,-3.343 -1.4796,-6.01743 z m 43.9639,4.61803 V 64.12463 c 0,-2.02502 0.3108,-3.4172 0.9323,-4.17658 0.6216,-0.75939 2.0719,-1.13907 4.3509,-1.13907 v -4.23654 h -17.8309 c 0,6.36813 0,9.55219 0,9.55219 v 11.91026 c 0,1.97173 -0.2978,3.35059 -0.8934,4.13661 -0.5957,0.78603 -1.9812,1.17904 -4.1567,1.17904 h -0.8935 v 4.23653 z"
         id="path66"
         inkscape:connector-curvature="0" /></clipPath><clipPath
       clipPathUnits="userSpaceOnUse"
       id="clipPath74"><path
         d="M 0,0 H 413 V 135 H 0 Z"
         id="path72"
         inkscape:connector-curvature="0" /></clipPath><clipPath
       clipPathUnits="userSpaceOnUse"
       id="clipPath84"><path
         d="M 0,0 H 413 V 135 H 0 Z"
         id="path82"
         inkscape:connector-curvature="0" /></clipPath></defs><sodipodi:namedview
     pagecolor="#ffffff"
     bordercolor="#666666"
     borderopacity="1"
     objecttolerance="10"
     gridtolerance="10"
     guidetolerance="10"
     inkscape:pageopacity="0"
     inkscape:pageshadow="2"
     inkscape:window-width="1680"
     inkscape:window-height="988"
     id="namedview4"
     showgrid="false"
     inkscape:pagecheckerboard="true"
     inkscape:zoom="0.86290994"
     inkscape:cx="231.60088"
     inkscape:cy="243.72586"
     inkscape:window-x="-8"
     inkscape:window-y="-8"
     inkscape:window-maximized="1"
     inkscape:current-layer="g10" /><g
     id="g10"
     inkscape:groupmode="layer"
     inkscape:label="Logo_vit_text"
     transform="matrix(1.3333333,0,0,-1.3333333,0,180)"><g
       id="g12" /><g
       id="g14"><g
         id="g16"
         clip-path="url(#clipPath20)"><g
           id="g22"
           clip-path="url(#clipPath26)"><path
             d="M 23.23694,99.85127 H 112.7016 V 49.18328 H 23.23694 Z"
             style="fill:#ffffff;fill-opacity:1;fill-rule:nonzero;stroke:none"
             id="path28"
             inkscape:connector-curvature="0" /></g></g></g><g
       id="g30"><g
         id="g32"
         clip-path="url(#clipPath36)"><g
           id="g38"
           clip-path="url(#clipPath42)"><path
             d="M 213.5826,99.85127 H 267.935 V 47.33473 h -54.3524 z"
             style="fill:#ffffff;fill-opacity:1;fill-rule:nonzero;stroke:none"
             id="path44"
             inkscape:connector-curvature="0" /></g></g></g><g
       id="g46"><g
         id="g48"
         clip-path="url(#clipPath52)"><g
           id="g54"
           clip-path="url(#clipPath58)"><path
             d="M 106.3977,99.85127 H 160.75 V 47.33473 h -54.3523 z"
             style="fill:#ffffff;fill-opacity:1;fill-rule:nonzero;stroke:none"
             id="path60"
             inkscape:connector-curvature="0" /></g></g></g><g
       id="g62"
       style="fill:#ffffff;fill-opacity:1"><g
         id="g64"
         clip-path="url(#clipPath68)"
         style="fill:#ffffff;fill-opacity:1"><g
           id="g70"
           clip-path="url(#clipPath74)"
           style="fill:#ffffff;fill-opacity:1"><path
             d="m 152.5981,107.2454 h 72.8325 V 32.54637 h -72.8325 z"
             style="fill:#ffffff;fill-opacity:1;fill-rule:nonzero;stroke:none"
             id="path76"
             inkscape:connector-curvature="0" /></g></g></g><g
       id="g78"><g
         id="g80"
         clip-path="url(#clipPath84)"><g
           id="g86"
           transform="matrix(1,0,0,-1,278,98.47788)"><text
             transform="translate(0,13)"
             style="font-variant:normal;font-weight:bold;font-size:14px;font-family:Roboto;-inkscape-font-specification:RobotoSlab-Bold;writing-mode:lr-tb;fill:#ffffff;fill-opacity:1;fill-rule:nonzero;stroke:none"
             id="text90"><tspan
               x="0 10.815 19.754 33.229"
               y="0"
               sodipodi:role="line"
               id="tspan88">NEWS</tspan></text>
</g><g
           id="g92"
           transform="matrix(1,0,0,-1,278,98.47788)"><text
             transform="translate(0,29)"
             style="font-variant:normal;font-weight:bold;font-size:14px;font-family:Roboto;-inkscape-font-specification:RobotoSlab-Bold;writing-mode:lr-tb;fill:#ffffff;fill-opacity:1;fill-rule:nonzero;stroke:none"
             id="text96"><tspan
               x="0 10.9438 20.5002 29.558201 38.5 48.125 56.156799 66.054802 75.125397 85.181602"
               y="0"
               sodipodi:role="line"
               id="tspan94">HYPERLOCAL</tspan></text>
</g><g
           id="g98"
           transform="matrix(1,0,0,-1,278,98.47788)"><text
             transform="translate(0,45)"
             style="font-variant:normal;font-weight:bold;font-size:14px;font-family:Roboto;-inkscape-font-specification:RobotoSlab-Bold;writing-mode:lr-tb;fill:#ffffff;fill-opacity:1;fill-rule:nonzero;stroke:none"
             id="text102"><tspan
               x="0 8.7360001 12.1674 21.4158 29.447599 39.3456 48.601002 58.6572"
               y="0"
               sodipodi:role="line"
               id="tspan100">&amp; GLOBAL</tspan></text>
</g><g
           id="g104"
           transform="matrix(1,0,0,-1,270,96.47788)"><path
             d="M 1.246869,1.402174 V 42.53261"
             style="fill:none;stroke:#ffffff;stroke-width:3;stroke-linecap:square;stroke-linejoin:miter;stroke-miterlimit:10;stroke-dasharray:none;stroke-opacity:1"
             id="path106"
             inkscape:connector-curvature="0" /></g></g></g></g></svg>